{"accessors":[{"bufferView":0,"byteOffset":0,"componentType":5126,"count":36,"max":[0.5,6.0073,0.5],"min":[-0.5,-6.0073,-0.5],"normalized":false,"type":"VEC3"},{"bufferView":1,"byteOffset":0,"componentType":5126,"count":36,"max":[0,0,0.000076,-1],"min":[-1,-1,-1,-1],"normalized":false,"type":"VEC4"},{"bufferView":2,"byteOffset":0,"componentType":5126,"count":36,"max":[1,1,1],"min":[-1,-1,-1],"normalized":false,"type":"VEC3"},{"bufferView":3,"byteOffset":0,"componentType":5126,"count":36,"max":[1,1],"min":[0,0],"normalized":false,"type":"VEC2"},{"bufferView":4,"byteOffset":0,"componentType":5125,"count":36,"max":[35],"min":[0],"normalized":false,"type":"SCALAR"},{"bufferView":5,"byteOffset":0,"componentType":5126,"count":36,"max":[0.5,1.5,0.5],"min":[-0.5,-1.5,-0.5],"normalized":false,"type":"VEC3"},{"bufferView":6,"byteOffset":0,"componentType":5126,"count":36,"max":[0,0,0.000076,-1],"min":[-1,-1,-1,-1],"normalized":false,"type":"VEC4"},{"bufferView":7,"byteOffset":0,"componentType":5126,"count":36,"max":[1,1,1],"min":[-1,-1,-1],"normalized":false,"type":"VEC3"},{"bufferView":8,"byteOffset":0,"componentType":5126,"count":36,"max":[1,1],"min":[0,0],"normalized":false,"type":"VEC2"},{"bufferView":9,"byteOffset":0,"componentType":5125,"count":36,"max":[35],"min":[0],"normalized":false,"type":"SCALAR"},{"bufferView":10,"byteOffset":0,"componentType":5126,"count":36,"max":[0.5,1.5,0.5],"min":[-0.5,-1.5,-0.5],"normalized":false,"type":"VEC3"},{"bufferView":11,"byteOffset":0,"componentType":5126,"count":36,"max":[0,0,0.000076,-1],"min":[-1,-1,-1,-1],"normalized":false,"type":"VEC4"},{"bufferView":12,"byteOffset":0,"componentType":5126,"count":36,"max":[1,1,1],"min":[-1,-1,-1],"normalized":false,"type":"VEC3"},{"bufferView":13,"byteOffset":0,"componentType":5126,"count":36,"max":[1,1],"min":[0,0],"normalized":false,"type":"VEC2"},{"bufferView":14,"byteOffset":0,"componentType":5125,"count":36,"max":[35],"min":[0],"normalized":false,"type":"SCALAR"},{"bufferView":15,"byteOffset":0,"componentType":5126,"count":36,"max":[0.5,1.5,0.5],"min":[-0.5,-1.5,-0.5],"normalized":false,"type":"VEC3"},{"bufferView":16,"byteOffset":0,"componentType":5126,"count":36,"max":[0,0,0.000076,-1],"min":[-1,-1,-1,-1],"normalized":false,"type":"VEC4"},{"bufferView":17,"byteOffset":0,"componentType":5126,"count":36,"max":[1,1,1],"min":[-1,-1,-1],"normalized":false,"type":"VEC3"},{"bufferView":18,"byteOffset":0,"componentType":5126,"count":36,"max":[1,1],"min":[0,0],"normalized":false,"type":"VEC2"},{"bufferView":19,"byteOffset":0,"componentType":5125,"count":36,"max":[35],"min":[0],"normalized":false,"type":"SCALAR"},{"bufferView":20,"byteOffset":0,"componentType":5126,"count":36,"max":[0.5,1.5,0.5],"min":[-0.5,-1.5,-0.5],"normalized":false,"type":"VEC3"},{"bufferView":21,"byteOffset":0,"componentType":5126,"count":36,"max":[0,0,0.000076,-1],"min":[-1,-1,-1,-1],"normalized":false,"type":"VEC4"},{"bufferView":22,"byteOffset":0,"componentType":5126,"count":36,"max":[1,1,1],"min":[-1,-1,-1],"normalized":false,"type":"VEC3"},{"bufferView":23,"byteOffset":0,"componentType":5126,"count":36,"max":[1,1],"min":[0,0],"normalized":false,"type":"VEC2"},{"bufferView":24,"byteOffset":0,"componentType":5125,"count":36,"max":[35],"min":[0],"normalized":false,"type":"SCALAR"},{"bufferView":25,"byteOffset":0,"componentType":5126,"count":36,"max":[0.5,1.5,0.5],"min":[-0.5,-1.5,-0.5],"normalized":false,"type":"VEC3"},{"bufferView":26,"byteOffset":0,"componentType":5126,"count":36,"max":[0,0,0.000076,-1],"min":[-1,-1,-1,-1],"normalized":false,"type":"VEC4"},{"bufferView":27,"byteOffset":0,"componentType":5126,"count":36,"max":[1,1,1],"min":[-1,-1,-1],"normalized":false,"type":"VEC3"},{"bufferView":28,"byteOffset":0,"componentType":5126,"count":36,"max":[1,1],"min":[0,0],"normalized":false,"type":"VEC2"},{"bufferView":29,"byteOffset":0,"componentType":5125,"count":36,"max":[35],"min":[0],"normalized":false,"type":"SCALAR"},{"bufferView":30,"byteOffset":0,"componentType":5126,"count":36,"max":[0.5,1.5,0.5],"min":[-0.5,-1.5,-0.5],"normalized":false,"type":"VEC3"},{"bufferView":31,"byteOffset":0,"componentType":5126,"count":36,"max":[0,0,0.000076,-1],"min":[-1,-1,-1,-1],"normalized":false,"type":"VEC4"},{"bufferView":32,"byteOffset":0,"componentType":5126,"count":36,"max":[1,1,1],"min":[-1,-1,-1],"normalized":false,"type":"VEC3"},{"bufferView":33,"byteOffset":0,"componentType":5126,"count":36,"max":[1,1],"min":[0,0],"normalized":false,"type":"VEC2"},{"bufferView":34,"byteOffset":0,"componentType":5125,"count":36,"max":[35],"min":[0],"normalized":false,"type":"SCALAR"},{"bufferView":35,"byteOffset":0,"componentType":5126,"count":36,"max":[0.5,1.5,0.5],"min":[-0.5,-1.5,-0.5],"normalized":false,"type":"VEC3"},{"bufferView":36,"byteOffset":0,"componentType":5126,"count":36,"max":[0,0,0.000076,-1],"min":[-1,-1,-1,-1],"normalized":false,"type":"VEC4"},{"bufferView":37,"byteOffset":0,"componentType":5126,"count":36,"max":[1,1,1],"min":[-1,-1,-1],"normalized":false,"type":"VEC3"},{"bufferView":38,"byteOffset":0,"componentType":5126,"count":36,"max":[1,1],"min":[0,0],"normalized":false,"type":"VEC2"},{"bufferView":39,"byteOffset":0,"componentType":5125,"count":36,"max":[35],"min":[0],"normalized":false,"type":"SCALAR"},{"bufferView":40,"byteOffset":0,"componentType":5126,"count":36,"max":[0.5,1.5,0.5],"min":[-0.5,-1.5,-0.5],"normalized":false,"type":"VEC3"},{"bufferView":41,"byteOffset":0,"componentType":5126,"count":36,"max":[0,0,0.000076,-1],"min":[-1,-1,-1,-1],"normalized":false,"type":"VEC4"},{"bufferView":42,"byteOffset":0,"componentType":5126,"count":36,"max":[1,1,1],"min":[-1,-1,-1],"normalized":false,"type":"VEC3"},{"bufferView":43,"byteOffset":0,"componentType":5126,"count":36,"max":[1,1],"min":[0,0],"normalized":false,"type":"VEC2"},{"bufferView":44,"byteOffset":0,"componentType":5125,"count":36,"max":[35],"min":[0],"normalized":false,"type":"SCALAR"},{"bufferView":45,"byteOffset":0,"componentType":5126,"count":36,"max":[0.5,1.5,0.5],"min":[-0.5,-1.5,-0.5],"normalized":false,"type":"VEC3"},{"bufferView":46,"byteOffset":0,"componentType":5126,"count":36,"max":[0,0,0.000076,-1],"min":[-1,-1,-1,-1],"normalized":false,"type":"VEC4"},{"bufferView":47,"byteOffset":0,"componentType":5126,"count":36,"max":[1,1,1],"min":[-1,-1,-1],"normalized":false,"type":"VEC3"},{"bufferView":48,"byteOffset":0,"componentType":5126,"count":36,"max":[1,1],"min":[0,0],"normalized":false,"type":"VEC2"},{"bufferView":49,"byteOffset":0,"componentType":5125,"count":36,"max":[35],"min":[0],"normalized":false,"type":"SCALAR"},{"bufferView":50,"byteOffset":0,"componentType":5126,"count":36,"max":[10.08345,0.0005,9.4505],"min":[-10.08345,-0.0005,-9.4505],"normalized":false,"type":"VEC3"},{"bufferView":51,"byteOffset":0,"componentType":5126,"count":36,"max":[0,0,0.000076,-1],"min":[-1,-1,-1,-1],"normalized":false,"type":"VEC4"},{"bufferView":52,"byteOffset":0,"componentType":5126,"count":36,"max":[1,1,1],"min":[-1,-1,-1],"normalized":false,"type":"VEC3"},{"bufferView":53,"byteOffset":0,"componentType":5126,"count":36,"max":[1,1],"min":[0,0],"normalized":false,"type":"VEC2"},{"bufferView":54,"byteOffset":0,"componentType":5125,"count":36,"max":[35],"min":[0],"normalized":false,"type":"SCALAR"}],"asset":{"generator":"Godot Engine v4.2.1.stable.official@b09f793f564a6c95dc76acc654b390e68441bd01","version":"2.0"},"bufferViews":[{"buffer":0,"byteLength":432,"byteOffset":0},{"buffer":0,"byteLength":576,"byteOffset":432},{"buffer":0,"byteLength":432,"byteOffset":1008},{"buffer":0,"byteLength":288,"byteOffset":1440},{"buffer":0,"byteLength":144,"byteOffset":1728},{"buffer":0,"byteLength":432,"byteOffset":1872},{"buffer":0,"byteLength":576,"byteOffset":2304},{"buffer":0,"byteLength":432,"byteOffset":2880},{"buffer":0,"byteLength":288,"byteOffset":3312},{"buffer":0,"byteLength":144,"byteOffset":3600},{"buffer":0,"byteLength":432,"byteOffset":3744},{"buffer":0,"byteLength":576,"byteOffset":4176},{"buffer":0,"byteLength":432,"byteOffset":4752},{"buffer":0,"byteLength":288,"byteOffset":5184},{"buffer":0,"byteLength":144,"byteOffset":5472},{"buffer":0,"byteLength":432,"byteOffset":5616},{"buffer":0,"byteLength":576,"byteOffset":6048},{"buffer":0,"byteLength":432,"byteOffset":6624},{"buffer":0,"byteLength":288,"byteOffset":7056},{"buffer":0,"byteLength":144,"byteOffset":7344},{"buffer":0,"byteLength":432,"byteOffset":7488},{"buffer":0,"byteLength":576,"byteOffset":7920},{"buffer":0,"byteLength":432,"byteOffset":8496},{"buffer":0,"byteLength":288,"byteOffset":8928},{"buffer":0,"byteLength":144,"byteOffset":9216},{"buffer":0,"byteLength":432,"byteOffset":9360},{"buffer":0,"byteLength":576,"byteOffset":9792},{"buffer":0,"byteLength":432,"byteOffset":10368},{"buffer":0,"byteLength":288,"byteOffset":10800},{"buffer":0,"byteLength":144,"byteOffset":11088},{"buffer":0,"byteLength":432,"byteOffset":11232},{"buffer":0,"byteLength":576,"byteOffset":11664},{"buffer":0,"byteLength":432,"byteOffset":12240},{"buffer":0,"byteLength":288,"byteOffset":12672},{"buffer":0,"byteLength":144,"byteOffset":12960},{"buffer":0,"byteLength":432,"byteOffset":13104},{"buffer":0,"byteLength":576,"byteOffset":13536},{"buffer":0,"byteLength":432,"byteOffset":14112},{"buffer":0,"byteLength":288,"byteOffset":14544},{"buffer":0,"byteLength":144,"byteOffset":14832},{"buffer":0,"byteLength":432,"byteOffset":14976},{"buffer":0,"byteLength":576,"byteOffset":15408},{"buffer":0,"byteLength":432,"byteOffset":15984},{"buffer":0,"byteLength":288,"byteOffset":16416},{"buffer":0,"byteLength":144,"byteOffset":16704},{"buffer":0,"byteLength":432,"byteOffset":16848},{"buffer":0,"byteLength":576,"byteOffset":17280},{"buffer":0,"byteLength":432,"byteOffset":17856},{"buffer":0,"byteLength":288,"byteOffset":18288},{"buffer":0,"byteLength":144,"byteOffset":18576},{"buffer":0,"byteLength":432,"byteOffset":18720},{"buffer":0,"byteLength":576,"byteOffset":19152},{"buffer":0,"byteLength":432,"byteOffset":19728},{"buffer":0,"byteLength":288,"byteOffset":20160},{"buffer":0,"byteLength":144,"byteOffset":20448}],"buffers":[{"byteLength":20592,"uri":"world20.bin"}],"extensionsUsed":["GODOT_single_root"],"images":[{"uri":"textures%2F_albedo000.png"}],"materials":[{"extensions":{},"pbrMetallicRoughness":{"baseColorFactor":[0.99999988079071,0.99999988079071,0.99999988079071,1],"metallicFactor":0,"roughnessFactor":1}},{"extensions":{},"pbrMetallicRoughness":{"baseColorFactor":[0.99999988079071,0.99999988079071,0.99999988079071,1],"metallicFactor":0,"roughnessFactor":1}},{"extensions":{},"pbrMetallicRoughness":{"baseColorFactor":[0.99999988079071,0.99999988079071,0.99999988079071,1],"metallicFactor":0,"roughnessFactor":1}},{"extensions":{},"pbrMetallicRoughness":{"baseColorFactor":[0.99999988079071,0.99999988079071,0.99999988079071,1],"metallicFactor":0,"roughnessFactor":1}},{"extensions":{},"pbrMetallicRoughness":{"baseColorFactor":[0.99999988079071,0.99999988079071,0.99999988079071,1],"metallicFactor":0,"roughnessFactor":1}},{"extensions":{},"pbrMetallicRoughness":{"baseColorFactor":[0.99999988079071,0.99999988079071,0.99999988079071,1],"metallicFactor":0,"roughnessFactor":1}},{"extensions":{},"pbrMetallicRoughness":{"baseColorFactor":[0.99999988079071,0.99999988079071,0.99999988079071,1],"metallicFactor":0,"roughnessFactor":1}},{"extensions":{},"pbrMetallicRoughness":{"baseColorFactor":[0.99999988079071,0.99999988079071,0.99999988079071,1],"metallicFactor":0,"roughnessFactor":1}},{"extensions":{},"pbrMetallicRoughness":{"baseColorFactor":[0.99999988079071,0.99999988079071,0.99999988079071,1],"metallicFactor":0,"roughnessFactor":1}},{"extensions":{},"pbrMetallicRoughness":{"baseColorFactor":[0.99999988079071,0.99999988079071,0.99999988079071,1],"metallicFactor":0,"roughnessFactor":1}},{"extensions":{},"pbrMetallicRoughness":{"baseColorFactor":[0.00121410982683301,0.127437740564346,0.198069348931313,1],"baseColorTexture":{"index":0},"metallicFactor":0,"roughnessFactor":1}}],"meshes":[{"extras":{"targetNames":[]},"primitives":[{"attributes":{"NORMAL":2,"POSITION":0,"TANGENT":1,"TEXCOORD_0":3},"indices":4,"material":0,"mode":4}]},{"extras":{"targetNames":[]},"primitives":[{"attributes":{"NORMAL":7,"POSITION":5,"TANGENT":6,"TEXCOORD_0":8},"indices":9,"material":1,"mode":4}]},{"extras":{"targetNames":[]},"primitives":[{"attributes":{"NORMAL":12,"POSITION":10,"TANGENT":11,"TEXCOORD_0":13},"indices":14,"material":2,"mode":4}]},{"extras":{"targetNames":[]},"primitives":[{"attributes":{"NORMAL":17,"POSITION":15,"TANGENT":16,"TEXCOORD_0":18},"indices":19,"material":3,"mode":4}]},{"extras":{"targetNames":[]},"primitives":[{"attributes":{"NORMAL":22,"POSITION":20,"TANGENT":21,"TEXCOORD_0":23},"indices":24,"material":4,"mode":4}]},{"extras":{"targetNames":[]},"primitives":[{"attributes":{"NORMAL":27,"POSITION":25,"TANGENT":26,"TEXCOORD_0":28},"indices":29,"material":5,"mode":4}]},{"extras":{"targetNames":[]},"primitives":[{"attributes":{"NORMAL":32,"POSITION":30,"TANGENT":31,"TEXCOORD_0":33},"indices":34,"material":6,"mode":4}]},{"extras":{"targetNames":[]},"primitives":[{"attributes":{"NORMAL":37,"POSITION":35,"TANGENT":36,"TEXCOORD_0":38},"indices":39,"material":7,"mode":4}]},{"extras":{"targetNames":[]},"primitives":[{"attributes":{"NORMAL":42,"POSITION":40,"TANGENT":41,"TEXCOORD_0":43},"indices":44,"material":8,"mode":4}]},{"extras":{"targetNames":[]},"primitives":[{"attributes":{"NORMAL":47,"POSITION":45,"TANGENT":46,"TEXCOORD_0":48},"indices":49,"material":9,"mode":4}]},{"extras":{"targetNames":[]},"primitives":[{"attributes":{"NORMAL":52,"POSITION":50,"TANGENT":51,"TEXCOORD_0":53},"indices":54,"material":10,"mode":4}]}],"nodes":[{"children":[1,2,3,4,5,6,7,8,9,10,11],"extensions":{},"name":"walls"},{"extensions":{},"mesh":0,"name":"CSGBox3D22","scale":[21.2749996185303,1,1],"translation":[-0.46390500664711,6.00781011581421,8.98264026641846]},{"extensions":{},"mesh":1,"name":"CSGBox3D32","scale":[21.2749996185303,1,1],"translation":[-0.46390500664711,1.60587000846863,-10.01739978790283]},{"extensions":{},"mesh":2,"name":"CSGBox3D42","rotation":[-0.00000006181739,0.70710676908493,0.0000000618173956468127,0.70710676908493],"scale":[21.2749996185303,1,1],"translation":[-10.46389961242676,1.60587000846863,-2.01735997200012]},{"extensions":{},"mesh":3,"name":"CSGBox3D52","rotation":[-0.00000006181739,0.70710676908493,0.0000000618173956468127,0.70710676908493],"scale":[21.2749996185303,1,1],"translation":[9.53608989715576,1.60587000846863,-2.01735997200012]},{"extensions":{},"mesh":4,"name":"CSGBox3D62","rotation":[-0.00000006181739,0.70710676908493,0.0000000618173956468127,0.70710676908493],"scale":[8.7158203125,1,1],"translation":[-3.3910698890686,1.60587000846863,4.45122003555298]},{"extensions":{},"mesh":5,"name":"CSGBox3D82","rotation":[-0.00000006181739,0.70710676908493,0.0000000618173956468127,0.70710676908493],"scale":[14.3239002227783,1,1],"translation":[0.62371301651001,1.60587000846863,-3.06312990188599]},{"extensions":{},"mesh":6,"name":"CSGBox3D92","rotation":[-0.00000006181739,0.70710676908493,0.0000000618173956468127,0.70710676908493],"scale":[8.7158203125,1,1],"translation":[-3.33506989479065,1.60587000846863,-6.76434993743896]},{"extensions":{},"mesh":7,"name":"CSGBox3D102","scale":[8.7158203125,1,1],"translation":[-9.6932897567749,1.60587000846863,-2.96906995773315]},{"extensions":{},"mesh":8,"name":"CSGBox3D122","scale":[6.86948013305664,1,1],"translation":[3.76050996780396,1.60587000846863,-2.96906995773315]},{"extensions":{},"mesh":9,"name":"CSGBox3D112","scale":[5.52611017227173,0.997116029262543,0.997116029262543],"translation":[-6.19478988647461,1.60587000846863,1.03130996227264]},{"extensions":{},"mesh":10,"name":"floor2","translation":[0,0.221790313720703,0]}],"samplers":[{"magFilter":9729,"minFilter":9987,"wrapS":10497,"wrapT":10497}],"scene":0,"scenes":[{"nodes":[0]}],"textures":[{"sampler":0,"source":0}]}